<svg xmlns="http://www.w3.org/2000/svg" width="500" height="500" version="1.0" viewBox="0 0 375 375"><defs><clipPath id="a"><path d="M177.254 226.617h72.207v14.461h-72.207Zm0 0"/></clipPath><clipPath id="b"><path d="M177.254 282.117h72.207v14.461h-72.207Zm0 0"/></clipPath><clipPath id="c"><path d="M177.254 254.367h72.207v14.461h-72.207Zm0 0"/></clipPath><clipPath id="d"><path d="M286.367 264.441H322v31.133h-35.633Zm0 0"/></clipPath><clipPath id="e"><path d="m304.156 264.441 17.793 31.133h-35.582Zm0 0"/></clipPath><clipPath id="f"><path d="M257.262 280.441h19.164v16.137h-19.164Zm0 0"/></clipPath><clipPath id="g"><path d="m266.832 280.441 9.57 16.137h-19.14Zm0 0"/></clipPath><clipPath id="h"><path d="M331.043 276.66h19.504v18.914h-19.504Zm0 0"/></clipPath><clipPath id="i"><path d="m340.79 276.66 9.745 18.914h-19.492Zm0 0"/></clipPath><clipPath id="j"><path d="M88.805 9.117h206.25v206.25H88.805Zm0 0"/></clipPath><clipPath id="k"><path d="M191.93 9.117c-56.953 0-103.125 46.172-103.125 103.125s46.172 103.125 103.125 103.125c56.957 0 103.125-46.172 103.125-103.125S248.887 9.117 191.93 9.117Zm0 0"/></clipPath><clipPath id="l"><path d="M95.832 16.145h192.2V208.34h-192.2Zm0 0"/></clipPath><clipPath id="m"><path d="M191.93 16.145c-53.07 0-96.098 43.023-96.098 96.097 0 53.074 43.027 96.098 96.098 96.098 53.074 0 96.101-43.024 96.101-96.098s-43.027-96.097-96.101-96.097Zm0 0"/></clipPath><clipPath id="n"><path d="M95.832 16.145h192v192h-192Zm0 0"/></clipPath><clipPath id="o"><path d="M191.926 16.145c-53.07 0-96.094 43.02-96.094 96.093 0 53.07 43.023 96.094 96.094 96.094 53.07 0 96.094-43.023 96.094-96.094 0-53.074-43.024-96.093-96.094-96.093Zm0 0"/></clipPath><clipPath id="p"><path d="M52.11 35.992h22.5v22.5h-22.5Zm0 0"/></clipPath><clipPath id="q"><path d="M63.43 35.992c-6.25 0-11.32 5.067-11.32 11.32 0 6.25 5.07 11.32 11.32 11.32 6.254 0 11.32-5.07 11.32-11.32 0-6.253-5.066-11.32-11.32-11.32Zm0 0"/></clipPath><clipPath id="r"><path d="M22.79 69.203h22.5v22.5h-22.5Zm0 0"/></clipPath><clipPath id="s"><path d="M34.11 69.203c-6.255 0-11.32 5.067-11.32 11.32 0 6.25 5.065 11.32 11.32 11.32 6.25 0 11.32-5.07 11.32-11.32 0-6.253-5.07-11.32-11.32-11.32Zm0 0"/></clipPath><clipPath id="t"><path d="M58.176 91.844h22.5v22.5h-22.5Zm0 0"/></clipPath><clipPath id="u"><path d="M69.496 91.844c-6.254 0-11.32 5.07-11.32 11.32 0 6.254 5.066 11.32 11.32 11.32 6.25 0 11.32-5.066 11.32-11.32 0-6.25-5.07-11.32-11.32-11.32Zm0 0"/></clipPath><clipPath id="v"><path d="M30.61 133.016h22.5v22.5h-22.5Zm0 0"/></clipPath><clipPath id="w"><path d="M41.93 133.016c-6.25 0-11.32 5.066-11.32 11.32 0 6.25 5.07 11.32 11.32 11.32 6.254 0 11.32-5.07 11.32-11.32 0-6.254-5.066-11.32-11.32-11.32Zm0 0"/></clipPath><clipPath id="x"><path d="M341.93 69.203h22.5v22.5h-22.5Zm0 0"/></clipPath><clipPath id="y"><path d="M353.25 69.203c-6.25 0-11.32 5.067-11.32 11.32 0 6.25 5.07 11.32 11.32 11.32 6.254 0 11.32-5.07 11.32-11.32 0-6.253-5.066-11.32-11.32-11.32Zm0 0"/></clipPath><clipPath id="z"><path d="M316.055 35.992h22.5v22.5h-22.5Zm0 0"/></clipPath><clipPath id="A"><path d="M327.375 35.992c-6.25 0-11.32 5.067-11.32 11.32 0 6.25 5.07 11.32 11.32 11.32 6.254 0 11.32-5.07 11.32-11.32 0-6.253-5.066-11.32-11.32-11.32Zm0 0"/></clipPath><clipPath id="B"><path d="M303.305 91.844h22.5v22.5h-22.5Zm0 0"/></clipPath><clipPath id="C"><path d="M314.625 91.844c-6.25 0-11.32 5.07-11.32 11.32 0 6.254 5.07 11.32 11.32 11.32 6.254 0 11.32-5.066 11.32-11.32 0-6.25-5.066-11.32-11.32-11.32Zm0 0"/></clipPath><clipPath id="D"><path d="M327.379 133.016h22.5v22.5h-22.5Zm0 0"/></clipPath><clipPath id="E"><path d="M338.7 133.016c-6.255 0-11.321 5.066-11.321 11.32 0 6.25 5.066 11.32 11.32 11.32 6.25 0 11.32-5.07 11.32-11.32 0-6.254-5.07-11.32-11.32-11.32Zm0 0"/></clipPath><clipPath id="F"><path d="M184.727 21.813h7.203v180.859h-7.203Zm0 0"/></clipPath><clipPath id="G"><path d="M170.766 21.813h7.207v180.859h-7.207Zm0 0"/></clipPath><clipPath id="H"><path d="M156.809 25.953h7.207v172.574h-7.207Zm0 0"/></clipPath><clipPath id="I"><path d="M142.855 30.906h7.204v161.035h-7.204Zm0 0"/></clipPath><clipPath id="J"><path d="M128.898 42.793h7.207v140.91h-7.207Zm0 0"/></clipPath><clipPath id="K"><path d="M114.941 58.047h7.207v110.75h-7.207Zm0 0"/></clipPath><clipPath id="L"><path d="M100.984 80.523h7.207v62.016h-7.207Zm0 0"/></clipPath><clipPath id="M"><path d="M198.68 35.992h22.5v22.5h-22.5Zm0 0"/></clipPath><clipPath id="N"><path d="M210 35.992c-6.25 0-11.32 5.067-11.32 11.32 0 6.25 5.07 11.32 11.32 11.32 6.254 0 11.32-5.07 11.32-11.32 0-6.253-5.066-11.32-11.32-11.32Zm0 0"/></clipPath><clipPath id="O"><path d="M210.004 150.89h22.5v22.5h-22.5Zm0 0"/></clipPath><clipPath id="P"><path d="M221.324 150.89c-6.254 0-11.32 5.07-11.32 11.32 0 6.255 5.066 11.321 11.32 11.321 6.25 0 11.32-5.066 11.32-11.32 0-6.25-5.07-11.32-11.32-11.32Zm0 0"/></clipPath><clipPath id="Q"><path d="M226.43 69.203h22.5v22.5h-22.5Zm0 0"/></clipPath><clipPath id="R"><path d="M237.75 69.203c-6.25 0-11.32 5.067-11.32 11.32 0 6.25 5.07 11.32 11.32 11.32 6.254 0 11.32-5.07 11.32-11.32 0-6.253-5.066-11.32-11.32-11.32Zm0 0"/></clipPath><clipPath id="S"><path d="M212.93 110.047h22.5v22.5h-22.5Zm0 0"/></clipPath><clipPath id="T"><path d="M224.25 110.047c-6.25 0-11.32 5.07-11.32 11.32 0 6.254 5.07 11.32 11.32 11.32 6.254 0 11.32-5.066 11.32-11.32 0-6.25-5.066-11.32-11.32-11.32Zm0 0"/></clipPath><clipPath id="U"><path d="M267.867 43.71h49.45v7.204h-49.45Zm0 0"/></clipPath><clipPath id="V"><path d="M288.02 76.922h55.886v7.203H288.02Zm0 0"/></clipPath><clipPath id="W"><path d="M288.02 140.734h41.668v7.203H288.02Zm0 0"/></clipPath><clipPath id="X"><path d="M291.77 99.563h13.156v7.207H291.77Zm0 0"/></clipPath><clipPath id="Y"><path d="M43.086 76.922h53.633v7.207H43.086Zm0 0"/></clipPath><clipPath id="Z"><path d="M50.89 140.738h46.856v7.203H50.891Zm0 0"/></clipPath><clipPath id="aa"><path d="M72.059 43.707h44.18v7.207h-44.18Zm0 0"/></clipPath><clipPath id="ab"><path d="M78.922 99.566h12.902v7.207H78.922Zm0 0"/></clipPath><clipPath id="ac"><path d="M206.39 56.34h7.204v43.219h-7.203Zm0 0"/></clipPath><clipPath id="ad"><path d="M232.633 114.16h51.012v7.207h-51.012Zm0 0"/></clipPath><clipPath id="ae"><path d="M230.262 158.613h37.61v7.207h-37.61Zm0 0"/></clipPath><clipPath id="af"><path d="M184.715 158.613h28.21v7.207h-28.21Zm0 0"/></clipPath><clipPath id="ag"><path d="M184.719 92.36h28.879v7.206h-28.88Zm0 0"/></clipPath><clipPath id="ah"><path d="M234.164 95.96h49.484v7.208h-49.484Zm0 0"/></clipPath><clipPath id="ai"><path d="M184.715 121.629h30.86v7.203h-30.86Zm0 0"/></clipPath><clipPath id="aj"><path d="M234.14 89.39h7.204v10.172h-7.203Zm0 0"/></clipPath></defs><g clip-path="url(#a)"><path fill="#202932" d="M177.254 226.617h72.2v14.461h-72.2Zm0 0"/></g><g clip-path="url(#b)"><path fill="#202932" d="M177.254 282.117h72.2v14.461h-72.2Zm0 0"/></g><g clip-path="url(#c)"><path fill="#202932" d="M177.254 254.367h72.2v14.461h-72.2Zm0 0"/></g><g clip-path="url(#d)"><g clip-path="url(#e)"><path fill="#202932" d="M286.367 264.441H322v31.133h-35.633Zm0 0"/></g></g><path fill="#fff" d="M92.658 297.455H40.267v-12.453l35.781-46.094-.344-1.03h-34.03v-11.813h50.64v12.453L56.517 284.61l.344 1.032h35.797ZM151.003 252.924v-26.86h14.062v71.391h-14.062V264.94h-31.984v32.515h-14.11v-71.39h14.11v26.859Zm0 0"/><path fill="none" stroke="#fff" stroke-width="17.25" d="m269.574 292.398 34.582-61.535"/><path fill="none" stroke="#fff" stroke-width="18" d="m338.566 291.64-32.43-60.246"/><g clip-path="url(#f)"><g clip-path="url(#g)"><path fill="#fff" d="M257.262 280.441h19.164v16.137h-19.164Zm0 0"/></g></g><g clip-path="url(#h)"><g clip-path="url(#i)"><path fill="#fff" d="M331.043 276.66h19.504v18.914h-19.504Zm0 0"/></g></g><path fill="none" stroke="#fff" stroke-width="17.25" d="m297.125 235.484 16.586-.082"/><g clip-path="url(#j)"><g clip-path="url(#k)"><path fill="#fff" d="M88.805 9.117h206.25v206.25H88.805Zm0 0"/></g></g><g clip-path="url(#l)"><g clip-path="url(#m)"><path fill="#fff" d="M95.832 16.145h192.2V208.34h-192.2Zm0 0"/></g></g><g clip-path="url(#n)"><g clip-path="url(#o)"><path fill="none" stroke="#000" stroke-width="15" d="M191.926 16.145c-53.07 0-96.094 43.02-96.094 96.093 0 53.07 43.023 96.094 96.094 96.094 53.07 0 96.094-43.023 96.094-96.094 0-53.074-43.024-96.093-96.094-96.093Zm0 0"/></g></g><g clip-path="url(#p)"><g clip-path="url(#q)"><path fill="none" stroke="#fff" stroke-width="36" d="M63.43 35.992c-6.25 0-11.32 5.067-11.32 11.32 0 6.25 5.07 11.32 11.32 11.32 6.254 0 11.32-5.07 11.32-11.32 0-6.253-5.066-11.32-11.32-11.32Zm0 0"/></g></g><g clip-path="url(#r)"><g clip-path="url(#s)"><path fill="none" stroke="#fff" stroke-width="36" d="M34.11 69.203c-6.255 0-11.32 5.067-11.32 11.32 0 6.25 5.065 11.32 11.32 11.32 6.25 0 11.32-5.07 11.32-11.32 0-6.253-5.07-11.32-11.32-11.32Zm0 0"/></g></g><g clip-path="url(#t)"><g clip-path="url(#u)"><path fill="none" stroke="#fff" stroke-width="36" d="M69.496 91.844c-6.254 0-11.32 5.07-11.32 11.32 0 6.254 5.066 11.32 11.32 11.32 6.25 0 11.32-5.066 11.32-11.32 0-6.25-5.07-11.32-11.32-11.32Zm0 0"/></g></g><g clip-path="url(#v)"><g clip-path="url(#w)"><path fill="none" stroke="#fff" stroke-width="36" d="M41.93 133.016c-6.25 0-11.32 5.066-11.32 11.32 0 6.25 5.07 11.32 11.32 11.32 6.254 0 11.32-5.07 11.32-11.32 0-6.254-5.066-11.32-11.32-11.32Zm0 0"/></g></g><g clip-path="url(#x)"><g clip-path="url(#y)"><path fill="none" stroke="#fff" stroke-width="36" d="M353.25 69.203c-6.25 0-11.32 5.067-11.32 11.32 0 6.25 5.07 11.32 11.32 11.32 6.254 0 11.32-5.07 11.32-11.32 0-6.253-5.066-11.32-11.32-11.32Zm0 0"/></g></g><g clip-path="url(#z)"><g clip-path="url(#A)"><path fill="none" stroke="#fff" stroke-width="36" d="M327.375 35.992c-6.25 0-11.32 5.067-11.32 11.32 0 6.25 5.07 11.32 11.32 11.32 6.254 0 11.32-5.07 11.32-11.32 0-6.253-5.066-11.32-11.32-11.32Zm0 0"/></g></g><g clip-path="url(#B)"><g clip-path="url(#C)"><path fill="none" stroke="#fff" stroke-width="36" d="M314.625 91.844c-6.25 0-11.32 5.07-11.32 11.32 0 6.254 5.07 11.32 11.32 11.32 6.254 0 11.32-5.066 11.32-11.32 0-6.25-5.066-11.32-11.32-11.32Zm0 0"/></g></g><g clip-path="url(#D)"><g clip-path="url(#E)"><path fill="none" stroke="#fff" stroke-width="36" d="M338.7 133.016c-6.255 0-11.321 5.066-11.321 11.32 0 6.25 5.066 11.32 11.32 11.32 6.25 0 11.32-5.07 11.32-11.32 0-6.254-5.07-11.32-11.32-11.32Zm0 0"/></g></g><g clip-path="url(#F)"><path d="M184.727 21.813h7.203v180.851h-7.203Zm0 0"/></g><g clip-path="url(#G)"><path d="M170.766 21.813h7.207v180.851h-7.207Zm0 0"/></g><g clip-path="url(#H)"><path d="M156.809 25.953h7.207v172.578h-7.207Zm0 0"/></g><g clip-path="url(#I)"><path d="M142.855 30.906h7.204v161.035h-7.204Zm0 0"/></g><g clip-path="url(#J)"><path d="M128.898 42.793h7.207v140.906h-7.207Zm0 0"/></g><g clip-path="url(#K)"><path d="M114.941 58.047h7.207v110.762h-7.207Zm0 0"/></g><g clip-path="url(#L)"><path d="M100.984 80.523h7.207v62.012h-7.207Zm0 0"/></g><g clip-path="url(#M)"><g clip-path="url(#N)"><path fill="none" stroke="#000" stroke-width="36" d="M210 35.992c-6.25 0-11.32 5.067-11.32 11.32 0 6.25 5.07 11.32 11.32 11.32 6.254 0 11.32-5.07 11.32-11.32 0-6.253-5.066-11.32-11.32-11.32Zm0 0"/></g></g><g clip-path="url(#O)"><g clip-path="url(#P)"><path fill="none" stroke="#000" stroke-width="36" d="M221.324 150.89c-6.254 0-11.32 5.07-11.32 11.32 0 6.255 5.066 11.321 11.32 11.321 6.25 0 11.32-5.066 11.32-11.32 0-6.25-5.07-11.32-11.32-11.32Zm0 0"/></g></g><g clip-path="url(#Q)"><g clip-path="url(#R)"><path fill="none" stroke="#000" stroke-width="36" d="M237.75 69.203c-6.25 0-11.32 5.067-11.32 11.32 0 6.25 5.07 11.32 11.32 11.32 6.254 0 11.32-5.07 11.32-11.32 0-6.253-5.066-11.32-11.32-11.32Zm0 0"/></g></g><g clip-path="url(#S)"><g clip-path="url(#T)"><path fill="none" stroke="#000" stroke-width="36" d="M224.25 110.047c-6.25 0-11.32 5.07-11.32 11.32 0 6.254 5.07 11.32 11.32 11.32 6.254 0 11.32-5.066 11.32-11.32 0-6.25-5.066-11.32-11.32-11.32Zm0 0"/></g></g><g clip-path="url(#U)"><path fill="#fff" d="M317.316 43.71v7.204h-49.453v-7.203Zm0 0"/></g><g clip-path="url(#V)"><path fill="#fff" d="M343.906 76.922v7.203h-55.875v-7.203Zm0 0"/></g><g clip-path="url(#W)"><path fill="#fff" d="M329.688 140.734v7.203H288.03v-7.203Zm0 0"/></g><g clip-path="url(#X)"><path fill="#fff" d="M304.926 99.563v7.207H291.78v-7.207Zm0 0"/></g><g clip-path="url(#Y)"><path fill="#fff" d="M96.719 76.922v7.207H43.098v-7.207Zm0 0"/></g><g clip-path="url(#Z)"><path fill="#fff" d="M97.746 140.738v7.203H50.88v-7.203Zm0 0"/></g><g clip-path="url(#aa)"><path fill="#fff" d="M116.238 43.707v7.207H72.074v-7.207Zm0 0"/></g><g clip-path="url(#ab)"><path fill="#fff" d="M91.824 99.566v7.207h-12.89v-7.207Zm0 0"/></g><g clip-path="url(#ac)"><path d="M213.594 99.559h-7.203V56.352h7.203Zm0 0"/></g><g clip-path="url(#ad)"><path d="M283.645 114.16v7.207H232.64v-7.207Zm0 0"/></g><g clip-path="url(#ae)"><path d="M267.871 158.613v7.207h-37.605v-7.207Zm0 0"/></g><g clip-path="url(#af)"><path d="M212.926 158.613v7.207h-28.207v-7.207Zm0 0"/></g><g clip-path="url(#ag)"><path d="M213.598 92.36v7.206h-28.88V92.36Zm0 0"/></g><g clip-path="url(#ah)"><path d="M283.648 95.96v7.208h-49.484v-7.207Zm0 0"/></g><g clip-path="url(#ai)"><path d="M215.574 121.629v7.203h-30.851v-7.203Zm0 0"/></g><g clip-path="url(#aj)"><path d="M241.344 99.563h-7.203V89.398h7.203Zm0 0"/></g><path fill="#fff" d="M142.38 318.017v4.75h-8.235v23.812h-5.625v-23.812h-8.25v-4.75ZM161.95 334.032v7.813h13.626v4.734H156.31v-28.562h18.953v4.734h-13.312v6.672h11.64v4.61ZM202.182 346.986c-2.637 0-4.961-.547-6.969-1.641-2-1.094-3.57-2.734-4.703-4.922-1.125-2.195-1.688-4.906-1.688-8.125 0-3.219.563-5.922 1.688-8.11 1.133-2.195 2.703-3.843 4.703-4.937 2.008-1.094 4.332-1.64 6.969-1.64 2.75 0 5.082.539 7 1.609 1.914 1.074 3.285 2.715 4.11 4.922l-4.126 2.515-.484-.015c-.617-1.488-1.45-2.555-2.5-3.203-1.043-.645-2.375-.97-4-.97-2.375 0-4.23.79-5.563 2.36-1.324 1.575-1.984 4.063-1.984 7.469 0 3.398.66 5.883 1.984 7.453 1.332 1.574 3.188 2.36 5.563 2.36 3.707 0 5.976-1.805 6.812-5.422h.485l4.171 2.172c-.78 2.71-2.12 4.742-4.015 6.093-1.887 1.356-4.371 2.032-7.453 2.032ZM246.166 328.767v-10.75h5.625v28.562h-5.625v-13.015H233.37v13.015h-5.64v-28.562h5.64v10.75Zm0 0"/><path fill="none" stroke="#fff" stroke-width="7.5" d="M68.34 332.328h37.543M269.012 331.578h37.539"/></svg>